<svg  viewBox="0 0 251 303" fill="none" xmlns="http://www.w3.org/2000/svg">
<g clip-path="url(#clip0_349_364)">
<path fill-rule="evenodd" clip-rule="evenodd" d="M126.04 11.5671C126.578 11.5502 126.938 11.8324 127.119 12.4135C128.479 15.5468 129.738 18.6502 130.898 21.7235C130.898 22.2878 130.898 22.852 130.898 23.4163C130.933 23.6635 130.843 23.8517 130.628 23.9805C129.138 23.4167 128.418 22.2882 128.469 20.5951C128.069 21.2386 127.619 21.2386 127.119 20.5951C126.778 22.0634 126.238 23.38 125.5 24.5448C125.939 20.2352 126.119 15.9093 126.04 11.5671Z" fill="#FCF2C0"/>
<path opacity="0.451" fill-rule="evenodd" clip-rule="evenodd" d="M126.04 11.567C126.932 10.8338 127.742 11.0219 128.469 12.1313C129.314 15.3305 130.124 18.5279 130.898 21.7234C129.738 18.6501 128.479 15.5467 127.119 12.4134C126.938 11.8323 126.578 11.5502 126.04 11.567Z" fill="#C0A067"/>
<path opacity="0.976" fill-rule="evenodd" clip-rule="evenodd" d="M126.04 11.5671C126.119 15.9093 125.939 20.2353 125.5 24.5448C125.789 26.3493 125.429 27.8539 124.42 29.0588C125.025 23.1541 125.565 17.3235 126.04 11.5671Z" fill="#CEB28D"/>
<path fill-rule="evenodd" clip-rule="evenodd" d="M131.977 49.3716C131.798 52.3809 131.617 55.3903 131.438 58.3995C131.275 60.0206 130.914 61.5249 130.358 62.9135C129.567 63.3914 129.116 64.1436 129.008 65.1705C128.744 64.4409 128.654 63.6882 128.739 62.9135C128.688 59.8592 129.048 57.038 129.818 54.4498C128.955 48.2643 126.616 47.2299 122.801 51.3465C122.289 51.6189 121.749 51.7129 121.182 51.6286C121.501 53.395 120.961 54.7116 119.562 55.5783C120.063 53.9118 120.513 52.2191 120.912 50.5001C122.197 48.9654 123.277 47.2727 124.15 45.4219C124.863 38.5143 126.032 31.5552 127.659 24.5448C128.679 24.43 129.489 24.8062 130.088 25.6733C131.831 33.4353 132.46 41.3348 131.977 49.3716Z" fill="#FDFAE9"/>
<path fill-rule="evenodd" clip-rule="evenodd" d="M130.898 23.4162C132.274 26.5806 132.814 29.9661 132.517 33.5726C132.694 38.9414 132.514 44.2077 131.978 49.3715C132.461 41.3347 131.831 33.4352 130.088 25.6732C129.489 24.806 128.679 24.4299 127.659 24.5447C126.032 31.5551 124.863 38.5142 124.151 45.4218C123.277 47.2726 122.197 48.9653 120.912 50.5C120.513 52.219 120.063 53.9117 119.562 55.5782C119.023 56.1425 118.483 56.7067 117.943 57.2709C119.377 52.1868 120.996 47.1085 122.801 42.0363C122.688 41.7057 122.508 41.4235 122.261 41.1899C123.36 37.234 124.08 33.1902 124.421 29.0587C125.429 27.8538 125.789 26.3492 125.5 24.5447C126.239 23.3799 126.778 22.0634 127.119 20.595C127.619 21.2385 128.069 21.2385 128.469 20.595C128.418 22.2882 129.138 23.4167 130.628 23.9804C130.843 23.8516 130.933 23.6635 130.898 23.4162Z" fill="#F9F0D2"/>
<path opacity="0.224" fill-rule="evenodd" clip-rule="evenodd" d="M132.517 33.5725C134.055 41.9257 133.695 50.2013 131.438 58.3993C131.617 55.39 131.798 52.3807 131.978 49.3714C132.514 44.2076 132.694 38.9413 132.517 33.5725Z" fill="#B39D75"/>
<path opacity="0.945" fill-rule="evenodd" clip-rule="evenodd" d="M124.42 29.0586C124.08 33.1901 123.36 37.2339 122.261 41.1899C122.508 41.4235 122.688 41.7056 122.801 42.0362C120.996 47.1085 119.377 52.1867 117.943 57.2709C116.649 59.0511 116.019 61.1196 116.054 63.4776C115.694 70.4364 115.694 77.3958 116.054 84.3547C117.159 87.6425 117.788 91.028 117.943 94.5111C113.868 82.7274 113.238 70.6903 116.054 58.3994C119.562 48.7763 122.351 38.9961 124.42 29.0586Z" fill="#C6AC7D"/>
<path opacity="0.999" fill-rule="evenodd" clip-rule="evenodd" d="M128.739 62.9133C128.747 65.9986 128.567 69.1957 128.199 72.5055C126.604 77.9573 125.704 83.5997 125.5 89.4329C124.802 90.1901 124.352 91.1307 124.15 92.2541C123.881 88.4974 123.791 84.7356 123.881 80.9692C123.161 80.9692 122.441 80.9692 121.721 80.9692C121.809 82.1129 121.719 83.2414 121.452 84.3547C121.272 84.1668 121.091 83.9783 120.912 83.7904C120.377 81.639 119.658 79.5699 118.753 77.5837C118.336 75.1067 118.425 72.6618 119.022 70.2485C117.026 66.0105 116.667 61.6844 117.943 57.2709C118.483 56.7066 119.022 56.1424 119.562 55.5782C120.961 54.7114 121.501 53.3948 121.182 51.6284C121.749 51.7128 122.289 51.6187 122.801 51.3463C126.616 47.2297 128.955 48.2642 129.818 54.4497C129.048 57.0379 128.688 59.8591 128.739 62.9133Z" fill="#FDFDF7"/>
<path opacity="0.998" fill-rule="evenodd" clip-rule="evenodd" d="M128.739 62.9133C128.654 63.688 128.744 64.4407 129.009 65.1703C129.117 64.1434 129.567 63.3912 130.358 62.9133C129.613 66.1724 128.893 69.37 128.199 72.5055C128.567 69.1956 128.747 65.9986 128.739 62.9133Z" fill="#D9B9A1"/>
<path opacity="0.998" fill-rule="evenodd" clip-rule="evenodd" d="M97.971 89.4328C98.0606 86.2302 97.9704 83.0326 97.7011 79.8407C96.567 77.3727 96.1168 74.7393 96.3516 71.9412C95.7838 71.8572 95.244 71.9508 94.7323 72.2234C94.4062 73.6159 93.6862 74.7444 92.5731 75.6088C92.9332 75.7967 93.2927 75.9852 93.6527 76.1731C92.883 77.7778 92.0733 79.3769 91.2237 80.9692C90.9592 81.6987 90.869 82.4514 90.9538 83.2261C89.6367 85.2845 88.7369 87.5415 88.2548 89.9971C87.5742 91.5533 87.1245 93.246 86.9054 95.0753C86.6355 99.7738 86.5459 104.476 86.6355 109.181C85.9516 103.806 85.9516 98.3524 86.6355 92.8183C88.0729 87.9314 89.5125 83.0411 90.9538 78.1479C91.2868 78.0853 91.5567 77.8974 91.7634 77.5837C92.8306 73.3298 93.2808 69.0038 93.1129 64.606C93.1129 63.6654 93.1129 62.7254 93.1129 61.7848C94.166 61.6308 94.9757 62.0066 95.5419 62.9133C98.365 71.6405 99.1747 80.48 97.971 89.4328Z" fill="#ECDAAA"/>
<path opacity="0.604" fill-rule="evenodd" clip-rule="evenodd" d="M93.113 64.6062C93.2809 69.0039 92.8307 73.33 91.7635 77.5839C91.5568 77.8976 91.2869 78.0855 90.9539 78.1481C91.4807 73.5264 92.2002 69.0124 93.113 64.6062Z" fill="#C49F6D"/>
<path fill-rule="evenodd" clip-rule="evenodd" d="M117.943 57.271C116.667 61.6845 117.026 66.0106 119.023 70.2486C118.426 72.6619 118.336 75.1068 118.753 77.5838C119.658 79.57 120.377 81.6391 120.912 83.7906C121.092 83.9784 121.272 84.1669 121.452 84.3548C121.719 83.2415 121.809 82.113 121.721 80.9693C122.441 80.9693 123.161 80.9693 123.881 80.9693C123.791 84.7357 123.881 88.4975 124.15 92.2542C124.352 91.1308 124.802 90.1902 125.5 89.433C125.5 91.3136 125.5 93.1948 125.5 95.0755C124.728 97.7991 124.098 100.62 123.611 103.539C122.591 102.42 121.872 101.104 121.452 99.5894C120.866 99.142 120.236 98.7656 119.562 98.4609C119.306 96.9279 118.767 95.6115 117.943 94.5112C117.788 91.0281 117.159 87.6427 116.054 84.3548C115.694 77.396 115.694 70.4365 116.054 63.4777C116.019 61.1197 116.649 59.0512 117.943 57.271Z" fill="#FDFAE3"/>
<path opacity="0.816" fill-rule="evenodd" clip-rule="evenodd" d="M161.126 73.0699C160.113 69.4102 158.763 65.8369 157.077 62.3493C156.449 65.8713 155.999 69.4452 155.728 73.0699C155.368 73.6342 155.008 74.1984 154.648 74.7627C155.404 70.48 155.854 66.154 155.998 61.785C157.009 60.5008 157.909 60.6887 158.697 62.3493C159.816 65.8515 160.626 69.4249 161.126 73.0699Z" fill="#C49B61"/>
<path fill-rule="evenodd" clip-rule="evenodd" d="M161.126 73.0698C161.126 73.8219 161.126 74.5746 161.126 75.3268C161.126 76.4553 161.126 77.5838 161.126 78.7122C160.713 77.4483 160.263 76.132 159.776 74.7625C158.976 76.1427 158.347 75.9542 157.887 74.1983C159.375 72.6094 159.105 72.2336 157.077 73.0698C156.605 74.7067 155.975 76.2115 155.188 77.5838C155.368 76.0789 155.548 74.5746 155.728 73.0698C155.999 69.4451 156.449 65.8711 157.077 62.3491C158.763 65.8367 160.113 69.4101 161.126 73.0698Z" fill="#FCEFC2"/>
<path fill-rule="evenodd" clip-rule="evenodd" d="M161.126 78.7123C161.137 82.8618 160.957 86.9994 160.586 91.1257C160.169 91.7994 159.63 92.3637 158.967 92.8185C159.301 90.6732 158.851 88.7926 157.617 87.176C157.072 87.6483 156.442 87.8362 155.728 87.7403C155.595 86.0644 154.696 85.3123 153.029 85.4833C153.862 82.8731 154.581 80.2397 155.188 77.5838C155.975 76.2116 156.605 74.7067 157.077 73.0699C159.105 72.2337 159.375 72.6094 157.887 74.1984C158.346 75.9543 158.976 76.1427 159.776 74.7626C160.263 76.132 160.713 77.4484 161.126 78.7123Z" fill="#FDFADE"/>
<path fill-rule="evenodd" clip-rule="evenodd" d="M97.9709 89.4331C97.6108 89.6209 97.2513 89.8094 96.8913 89.9973C97.1191 87.6151 96.759 85.3581 95.8117 83.2263C95.2838 83.4955 94.8342 83.8713 94.4623 84.3548C93.4766 83.9712 92.6669 83.0311 92.0332 81.5336C91.6683 82.1554 91.3088 82.7197 90.9537 83.2263C90.8689 82.4516 90.9591 81.6989 91.2236 80.9694C92.0732 79.3771 92.8828 77.778 93.6526 76.1733C93.2925 75.9854 92.933 75.7969 92.573 75.609C93.686 74.7446 94.4061 73.6161 94.7322 72.2236C95.2439 71.951 95.7837 71.8574 96.3515 71.9414C96.1167 74.7395 96.5669 77.3729 97.701 79.8409C97.9703 83.0328 98.0605 86.2304 97.9709 89.4331Z" fill="#FEFADC"/>
<path opacity="0.188" fill-rule="evenodd" clip-rule="evenodd" d="M161.126 75.3269C161.485 77.387 161.665 79.5503 161.666 81.8157C161.768 85.0613 161.407 88.1646 160.586 91.1258C160.957 86.9995 161.137 82.8618 161.126 78.7124C161.126 77.5839 161.126 76.4554 161.126 75.3269Z" fill="#B39F7C"/>
<path opacity="0.937" fill-rule="evenodd" clip-rule="evenodd" d="M128.199 72.5056C127.323 81.0489 126.424 89.5125 125.5 97.8967C125.5 96.9561 125.5 96.016 125.5 95.0754C125.5 93.1948 125.5 91.3136 125.5 89.433C125.705 83.5998 126.604 77.9574 128.199 72.5056Z" fill="#D0C2A9"/>
<path fill-rule="evenodd" clip-rule="evenodd" d="M96.8914 89.9971C96.5341 92.2349 96.3544 94.4919 96.3517 96.7681C95.0691 98.9647 94.5293 101.41 94.7323 104.103C94.3723 104.103 94.1925 104.291 94.1925 104.668C93.3548 106.063 92.2752 107.286 90.9538 108.335C90.902 109.11 90.9916 109.956 91.2237 110.874C90.2024 110.244 89.7528 109.303 89.8742 108.053C89.3345 108.053 88.7947 108.053 88.2549 108.053C87.5521 102.036 87.5521 96.0176 88.2549 89.9971C88.7369 87.5415 89.6367 85.2846 90.9538 83.2262C91.309 82.7195 91.6685 82.1552 92.0334 81.5334C92.6671 83.031 93.4768 83.971 94.4624 84.3547C94.8343 83.8711 95.284 83.4953 95.8119 83.2262C96.7592 85.3579 97.1192 87.6149 96.8914 89.9971Z" fill="#FDFBED"/>
<path fill-rule="evenodd" clip-rule="evenodd" d="M153.029 85.4832C154.696 85.3123 155.595 86.0644 155.728 87.7402C156.442 87.8361 157.072 87.6482 157.617 87.176C158.851 88.7925 159.301 90.6732 158.967 92.8184C157.727 97.9333 157.008 103.2 156.808 108.617C156.27 108.666 155.82 108.477 155.458 108.053C155.481 104.33 154.672 100.851 153.029 97.6145C153.652 97.0988 153.562 96.6288 152.759 96.2039C152.238 97.197 151.608 97.3854 150.87 96.7681C150.412 95.691 150.232 94.5625 150.33 93.3827C151.363 90.8176 152.263 88.1843 153.029 85.4832Z" fill="#FDFBF3"/>
<path opacity="0.388" fill-rule="evenodd" clip-rule="evenodd" d="M97.9709 89.4329C97.3777 91.9325 96.8379 94.3773 96.3516 96.7681C96.3543 94.4919 96.534 92.2349 96.8913 89.9971C97.2514 89.8092 97.6109 89.6208 97.9709 89.4329Z" fill="#C0A58F"/>
<path opacity="0.298" fill-rule="evenodd" clip-rule="evenodd" d="M96.3516 96.7681C96.0941 99.3472 95.5544 101.792 94.7323 104.103C94.5293 101.41 95.0691 98.9647 96.3516 96.7681Z" fill="#C1A686"/>
<path fill-rule="evenodd" clip-rule="evenodd" d="M150.33 93.3826C150.232 94.5624 150.412 95.6909 150.87 96.768C151.608 97.3853 152.238 97.1969 152.759 96.2038C153.562 96.6287 153.652 97.0987 153.029 97.6144C154.672 100.851 155.481 104.33 155.458 108.053C155.82 108.477 156.27 108.666 156.807 108.617C156.807 110.31 156.807 112.003 156.807 113.695C155.655 116.991 155.025 120.377 154.918 123.852C153.928 121.954 152.939 120.073 151.949 118.209C150.301 109.922 149.761 101.646 150.33 93.3826Z" fill="#FDF8DC"/>
<path opacity="0.959" fill-rule="evenodd" clip-rule="evenodd" d="M160.586 91.1257C159.172 98.6945 157.913 106.218 156.808 113.696C156.808 112.003 156.808 110.31 156.808 108.617C157.008 103.2 157.727 97.9334 158.967 92.8185C159.63 92.3637 160.169 91.7994 160.586 91.1257Z" fill="#D4C0A6"/>
<path opacity="0.763" fill-rule="evenodd" clip-rule="evenodd" d="M86.6356 92.8184C85.9517 98.3525 85.9517 103.806 86.6356 109.181C87.123 110.813 87.3028 112.505 87.1754 114.26C84.9061 107.711 84.4565 100.94 85.8259 93.9469C85.976 93.43 86.2459 93.0542 86.6356 92.8184Z" fill="#C4A36B"/>
<path opacity="0.996" fill-rule="evenodd" clip-rule="evenodd" d="M155.728 73.0698C155.548 74.5747 155.368 76.0789 155.188 77.5838C154.582 80.2397 153.862 82.873 153.029 85.4832C152.263 88.1843 151.363 90.8176 150.33 93.3827C149.761 101.646 150.301 109.922 151.95 118.209C151.77 118.209 151.589 118.209 151.41 118.209C148.685 110.54 147.876 102.64 148.981 94.5112C151.254 88.0398 153.144 81.4568 154.648 74.7626C155.008 74.1983 155.368 73.6341 155.728 73.0698Z" fill="#DAC19F"/>
<path opacity="0.994" fill-rule="evenodd" clip-rule="evenodd" d="M117.943 94.5112C118.767 95.6115 119.307 96.9279 119.562 98.461C120.236 98.7656 120.866 99.142 121.452 99.5894C121.872 101.104 122.591 102.42 123.611 103.539C124.098 100.62 124.728 97.7991 125.5 95.0755C125.5 96.0161 125.5 96.9561 125.5 97.8967C125.59 101.851 125.5 105.801 125.23 109.746C125.211 111.123 124.761 112.252 123.881 113.131C123.564 113.013 123.295 112.825 123.071 112.567C121.189 106.574 119.48 100.555 117.943 94.5112Z" fill="#EBD5A4"/>
<path opacity="0.173" fill-rule="evenodd" clip-rule="evenodd" d="M94.7323 104.103C94.7658 106.685 94.4058 109.13 93.6528 111.438C93.5961 109.154 93.7758 106.897 94.1926 104.668C94.1926 104.291 94.3723 104.103 94.7323 104.103Z" fill="#BDA489"/>
<path fill-rule="evenodd" clip-rule="evenodd" d="M88.2547 89.9973C87.5519 96.0178 87.5519 102.036 88.2547 108.053C88.7945 108.053 89.3343 108.053 89.8741 108.053C89.7526 109.304 90.2023 110.244 91.2236 110.874C90.9915 109.956 90.9019 109.11 90.9537 108.335C92.2751 107.286 93.3546 106.063 94.1924 104.668C93.7757 106.898 93.5959 109.155 93.6526 111.439C92.8877 115.142 92.2583 118.903 91.7633 122.724C91.1356 121.716 90.7755 120.588 90.6838 119.338C89.5675 118.268 88.5781 117.14 87.715 115.953C87.227 115.553 87.0472 114.988 87.1752 114.26C87.3026 112.506 87.1228 110.813 86.6354 109.182C86.5458 104.476 86.6354 99.774 86.9053 95.0755C87.1244 93.2462 87.5741 91.5535 88.2547 89.9973Z" fill="#FDF7D9"/>
<path opacity="0.235" fill-rule="evenodd" clip-rule="evenodd" d="M156.808 113.696C156.532 118.338 156.172 122.946 155.728 127.52C154.86 127.891 154.23 127.609 153.839 126.673C153.297 123.754 152.488 120.933 151.41 118.21C151.589 118.21 151.77 118.21 151.949 118.21C152.939 120.073 153.928 121.954 154.918 123.852C155.025 120.377 155.655 116.991 156.808 113.696Z" fill="#CAA46F"/>
<path opacity="0.831" fill-rule="evenodd" clip-rule="evenodd" d="M93.6527 111.438C93.4055 116.139 93.1356 120.842 92.843 125.545C92.1111 126.041 91.3014 126.23 90.414 126.109C89.729 122.646 88.8292 119.261 87.7151 115.952C88.5782 117.14 89.5676 118.268 90.6839 119.338C90.7757 120.588 91.1357 121.716 91.7635 122.723C92.2585 118.903 92.8878 115.142 93.6527 111.438Z" fill="#ECD2A3"/>
<path opacity="0.414" fill-rule="evenodd" clip-rule="evenodd" d="M149.25 134.573C154.45 135.237 159.489 136.365 164.364 137.958C159.335 137.301 154.297 136.548 149.25 135.701C149.25 135.325 149.25 134.949 149.25 134.573Z" fill="#C39E70"/>
<path fill-rule="evenodd" clip-rule="evenodd" d="M146.552 135.701C148.252 136.007 149.871 136.665 151.41 137.676C150.446 138.332 149.367 138.709 148.171 138.805C149.804 139.008 151.423 139.29 153.029 139.651C153.538 139.59 153.987 139.402 154.379 139.087C156.857 141.455 159.826 142.489 163.285 142.19C166.357 143.51 169.415 144.827 172.461 146.14C175.464 145.516 178.253 146.174 180.828 148.115C181.008 147.927 181.188 147.738 181.368 147.55C183.313 152.945 182.143 157.553 177.859 161.374C178.716 161.861 179.616 162.237 180.558 162.503C179.984 163.173 179.264 163.455 178.399 163.349C177.347 162.963 176.448 162.305 175.7 161.374C176.452 160.714 176.902 159.867 177.049 158.835C180.12 157.408 181.559 154.962 181.368 151.5C181.188 151.876 181.008 152.252 180.828 152.629C179.807 149.038 177.559 147.722 174.081 148.679C172.408 147.821 170.609 147.351 168.683 147.268C166.843 146.839 165.223 145.992 163.825 144.729C160.755 144.33 157.696 143.953 154.648 143.601C153.992 143.884 153.362 144.072 152.759 144.165C150.291 143.764 147.952 143.012 145.742 141.908C144.446 142.53 143.096 142.624 141.694 142.19C138.295 140.502 134.876 139.468 131.438 139.087C127.174 139.348 123.216 139.348 119.562 139.087C117.033 139.496 114.514 139.966 112.005 140.497C110.563 141.062 109.303 141.908 108.227 143.036C106.912 142.252 106.552 142.534 107.147 143.883C106.787 143.977 106.428 144.071 106.068 144.165C105.896 143.17 105.086 142.417 103.639 141.908C100.513 142.645 97.3648 143.397 94.1925 144.165C92.8214 143.871 91.472 143.495 90.1441 143.036C88.6683 143.653 87.2293 143.653 85.8258 143.036C84.8364 143.695 83.8464 144.353 82.857 145.011C79.3446 145.578 76.1961 146.989 73.4108 149.243C74.1152 153.452 74.3851 157.777 74.2205 162.221C72.0851 162.533 72.0851 163.003 74.2205 163.631C73.5749 164 73.5749 164.282 74.2205 164.478C75.4825 163.625 75.842 163.814 75.3 165.042C75.8398 166.17 76.3796 167.299 76.9194 168.427C75.2936 168.711 74.0342 169.557 73.1409 170.967C74.1778 171.667 74.3576 172.513 73.6807 173.506C72.9126 174.592 71.9231 175.345 70.7119 175.763C69.1961 175.263 67.6669 175.168 66.1237 175.481C64.3019 176.711 62.3225 177.557 60.186 178.02C60.0678 177.357 60.2476 176.792 60.7258 176.327C62.9632 175.157 65.3027 174.31 67.743 173.788C68.7557 172.737 69.9254 171.89 71.2516 171.249C71.6117 170.872 71.6117 170.497 71.2516 170.12C68.8442 169.725 68.4847 168.785 70.1721 167.299C72.6956 168.094 73.685 168.094 73.1409 167.299C73.6423 166.839 74.1821 166.369 74.7602 165.888C73.2602 164.917 71.6408 164.258 69.9022 163.913C68.6574 163.635 67.3981 163.447 66.1237 163.349C66.1237 157.143 66.1237 150.936 66.1237 144.729C71.5145 144.382 76.5529 142.971 81.2377 140.497C84.9606 139.914 88.5593 138.974 92.0334 137.676C96.4504 137.476 100.769 136.723 104.988 135.419C118.917 134.223 132.772 134.317 146.552 135.701Z" fill="#FDFCF0"/>
<path fill-rule="evenodd" clip-rule="evenodd" d="M178.399 163.349C177.87 164.277 177.151 165.03 176.24 165.606C176.353 165.937 176.533 166.219 176.78 166.453C179.478 167.017 182.177 167.581 184.876 168.145C185.056 168.333 185.236 168.522 185.416 168.71C184.589 169.105 184.049 169.762 183.797 170.684C185.985 172.874 188.414 174.754 191.084 176.327C191.377 178.759 192.187 180.922 193.513 182.816C193.117 183.812 192.937 184.846 192.973 185.919C192.973 186.107 192.973 186.295 192.973 186.483C192.201 186.439 191.481 186.627 190.814 187.048C190.003 188.225 189.283 189.447 188.655 190.715C187.254 190.843 185.905 191.125 184.606 191.562C182.696 195.721 182.246 200.047 183.257 204.539C182.571 206.367 181.941 208.248 181.368 210.182C181.188 212.815 181.008 215.448 180.828 218.081C180.767 219.477 180.227 220.606 179.209 221.467C178.939 225.788 178.849 230.114 178.939 234.444C178.568 239.832 177.848 245.098 176.78 250.243C175.267 253.628 174.367 257.201 174.081 260.964C173.778 263.406 173.328 265.851 172.731 268.299C172.236 267.096 171.516 266.72 170.572 267.17C169.551 266.815 168.651 266.251 167.873 265.478C167.72 259.963 165.111 256.577 160.046 255.321C159.565 254.977 159.025 254.789 158.427 254.757C158.427 254.569 158.427 254.381 158.427 254.193C158.063 253.333 157.523 252.58 156.807 251.936C157.313 251.104 158.033 250.54 158.967 250.243C159.54 249.384 159.9 248.444 160.046 247.422C160.652 246.605 161.462 246.041 162.475 245.729C162.835 244.977 162.835 244.224 162.475 243.472C160.316 243.096 158.157 242.72 155.998 242.344C155.458 242.72 154.918 243.096 154.378 243.472C153.76 242.484 153.491 241.45 153.569 240.369C152.376 239.415 151.387 239.509 150.6 240.651C150.988 238.791 150.898 236.91 150.33 235.008C149.155 235.057 148.075 235.433 147.091 236.137C146.35 235.454 145.54 234.889 144.662 234.444C143.774 235.37 143.234 235.182 143.043 233.88C142.626 234.641 141.996 235.111 141.154 235.291C138.455 235.385 135.756 235.478 133.057 235.573C124.892 235.774 116.975 235.491 109.306 234.726C109.046 235.295 108.957 235.954 109.037 236.701C107.699 237.236 106.439 237.236 105.258 236.701C104.876 237.593 104.427 238.44 103.909 239.24C103.215 239.626 102.586 239.532 102.019 238.958C99.9455 240.574 98.1458 242.266 96.6215 244.036C98.7131 243.031 98.983 243.69 97.4312 246.011C96.385 246.023 95.3055 245.929 94.1924 245.729C93.6527 246.011 93.1129 246.293 92.5731 246.575C92.8759 247.459 92.5159 248.211 91.4935 248.832C91.5561 249.548 91.7359 250.301 92.0333 251.089C90.8782 252.534 89.6188 253.851 88.2548 255.039C90.1586 256.462 90.2488 258.06 88.5247 259.835C88.4124 262.328 88.0529 264.773 87.4451 267.17C87.2654 266.606 87.0851 266.042 86.9053 265.478C85.1451 265.833 83.4356 266.397 81.7774 267.17C81.3466 266.28 81.0768 265.34 80.9677 264.349C80.788 264.537 80.6077 264.726 80.4279 264.913C80.4582 261.182 80.0085 257.42 79.0785 253.629C79.4898 251.591 79.7597 249.522 79.8881 247.422C80.0679 247.61 80.2482 247.798 80.4279 247.986C80.5094 246.508 80.9596 245.191 81.7774 244.036C80.517 242.532 79.527 240.839 78.8086 238.958C77.1741 232.401 76.1847 225.724 75.8398 218.927C76.0675 216.27 76.4276 213.637 76.9193 211.028C76.0179 209.367 75.8376 207.675 76.3795 205.95C75.0851 202.511 73.916 199.032 72.8709 195.511C71.9528 193.536 70.9633 191.655 69.9021 189.869C68.2401 190.004 66.6208 189.816 65.0441 189.305C63.7702 187.597 62.3306 186.092 60.7258 184.791C59.9253 182.529 59.745 180.272 60.186 178.02C62.3225 177.558 64.3019 176.711 66.1236 175.481C67.6669 175.168 69.1961 175.263 70.7118 175.763C71.9231 175.345 72.9125 174.592 73.6806 173.506C74.3575 172.513 74.1778 171.667 73.1408 170.967C74.0342 169.557 75.2935 168.711 76.9193 168.427C76.3795 167.299 75.8398 166.17 75.3 165.042C75.8419 163.814 75.4824 163.625 74.2204 164.478C73.5748 164.282 73.5748 164 74.2204 163.631C72.085 163.003 72.085 162.533 74.2204 162.221C74.385 157.777 74.1151 153.452 73.4107 149.243C76.196 146.989 79.3446 145.578 82.857 145.011C83.8464 144.353 84.8364 143.695 85.8258 143.036C87.2292 143.653 88.6683 143.653 90.1441 143.036C91.4719 143.495 92.8214 143.871 94.1924 144.165C97.3648 143.397 100.513 142.645 103.639 141.908C105.086 142.417 105.896 143.17 106.068 144.165C106.428 144.071 106.787 143.977 107.147 143.883C106.552 142.534 106.912 142.252 108.227 143.036C109.303 141.908 110.562 141.062 112.005 140.497C114.514 139.966 117.033 139.496 119.562 139.087C123.216 139.348 127.174 139.348 131.438 139.087C134.875 139.468 138.294 140.502 141.694 142.19C143.096 142.624 144.446 142.53 145.742 141.908C147.952 143.012 150.291 143.764 152.759 144.165C153.362 144.072 153.992 143.884 154.648 143.601C157.696 143.953 160.755 144.33 163.825 144.729C165.223 145.992 166.843 146.839 168.683 147.268C170.609 147.351 172.408 147.821 174.081 148.679C177.558 147.722 179.807 149.038 180.828 152.629C181.008 152.252 181.188 151.876 181.368 151.5C181.559 154.962 180.12 157.408 177.049 158.835C176.902 159.867 176.452 160.714 175.7 161.374C176.448 162.305 177.347 162.963 178.399 163.349Z" fill="#FEFEFE"/>
<path opacity="0.996" fill-rule="evenodd" clip-rule="evenodd" d="M149.25 134.573C149.25 134.949 149.25 135.325 149.25 135.701C148.351 135.701 147.451 135.701 146.552 135.701C132.772 134.316 118.917 134.223 104.988 135.419C100.769 136.723 96.4503 137.476 92.0332 137.676C88.5592 138.974 84.9604 139.914 81.2375 140.497C76.5527 142.971 71.5144 144.381 66.1236 144.729C66.1236 150.936 66.1236 157.142 66.1236 163.349C65.2955 160.198 64.9355 156.907 65.044 153.475C65.1017 150.357 65.282 147.253 65.5838 144.165C92.7263 134.292 120.615 131.094 149.25 134.573Z" fill="#EBD8B6"/>
<path fill-rule="evenodd" clip-rule="evenodd" d="M146.552 135.701C147.451 135.701 148.351 135.701 149.25 135.701C154.297 136.548 159.335 137.301 164.364 137.958C166.494 138.174 168.473 138.738 170.302 139.651C170.367 140.264 170.727 140.64 171.382 140.779C174.532 141.129 177.41 142.163 180.018 143.883C181.601 144.42 183.22 144.703 184.876 144.729C184.876 151.124 184.876 157.519 184.876 163.913C183.542 164.738 182.102 165.396 180.558 165.888C187.157 166.564 192.825 169.291 197.561 174.07C198.028 177.028 197.398 179.661 195.672 181.969C194.846 183.282 193.946 184.599 192.973 185.919C192.937 184.846 193.117 183.812 193.513 182.816C192.187 180.922 191.377 178.759 191.084 176.327C188.414 174.754 185.985 172.874 183.797 170.684C184.049 169.762 184.589 169.105 185.416 168.71C185.236 168.522 185.056 168.333 184.876 168.145C182.177 167.581 179.478 167.017 176.779 166.453C176.533 166.219 176.353 165.937 176.24 165.606C177.151 165.03 177.87 164.277 178.399 163.349C179.264 163.455 179.984 163.173 180.558 162.503C179.616 162.237 178.716 161.861 177.859 161.374C182.143 157.553 183.312 152.945 181.368 147.55C181.188 147.738 181.008 147.927 180.828 148.115C178.253 146.174 175.464 145.516 172.461 146.14C169.415 144.827 166.357 143.51 163.285 142.19C159.826 142.489 156.857 141.455 154.378 139.087C153.987 139.402 153.537 139.59 153.029 139.651C151.423 139.29 149.804 139.008 148.171 138.805C149.366 138.709 150.446 138.332 151.41 137.676C149.871 136.665 148.252 136.007 146.552 135.701Z" fill="#FBF8E6"/>
<path opacity="0.948" fill-rule="evenodd" clip-rule="evenodd" d="M170.302 139.651C175.37 140.764 180.318 142.268 185.146 144.165C185.592 150.846 185.502 157.429 184.876 163.913C184.876 157.519 184.876 151.124 184.876 144.729C183.22 144.703 181.601 144.42 180.018 143.883C177.411 142.163 174.532 141.129 171.382 140.779C170.727 140.64 170.367 140.264 170.302 139.651Z" fill="#D7C3A2"/>
<path opacity="0.345" fill-rule="evenodd" clip-rule="evenodd" d="M65.584 144.165C65.2822 147.253 65.1019 150.357 65.0442 153.475C64.9357 156.907 65.2957 160.198 66.1238 163.349C67.3982 163.447 68.6575 163.635 69.9022 163.913C70.2623 164.29 70.6218 164.666 70.9818 165.042C68.9582 164.9 66.9793 164.524 65.0442 163.913C64.4666 157.91 64.3765 151.891 64.7743 145.858C64.8995 145.16 65.1694 144.595 65.584 144.165Z" fill="#AE8468"/>
<path fill-rule="evenodd" clip-rule="evenodd" d="M69.9022 163.913C71.6408 164.258 73.2602 164.917 74.7602 165.888C74.1821 166.369 73.6423 166.839 73.1409 167.299C69.8363 166.112 66.8675 166.676 64.2344 168.992C62.9492 168.464 61.5997 168.276 60.186 168.427C64.0369 167.075 67.6356 165.947 70.9817 165.042C70.6217 164.665 70.2622 164.29 69.9022 163.913Z" fill="#DFD1B7"/>
<path opacity="0.224" fill-rule="evenodd" clip-rule="evenodd" d="M55.328 170.684C54.636 172.443 53.4665 173.759 51.8194 174.634C51.7295 175.198 51.6395 175.763 51.5495 176.327C53.5485 180.852 55.5278 185.366 57.4872 189.869C54.6668 185.762 52.3279 181.342 50.47 176.609C50.8538 173.484 52.4732 171.509 55.328 170.684Z" fill="#C7A470"/>
<path fill-rule="evenodd" clip-rule="evenodd" d="M73.141 167.299C73.6851 168.094 72.6956 168.094 70.1721 167.299C68.4848 168.785 68.8443 169.725 71.2517 170.12C71.6117 170.496 71.6117 170.872 71.2517 171.249C69.9255 171.89 68.7557 172.736 67.7431 173.788C65.3027 174.31 62.9633 175.157 60.7259 176.327C60.2477 176.792 60.0679 177.357 60.1861 178.02C59.8531 178.082 59.5832 178.27 59.3764 178.584C59.4844 180.952 58.8545 183.02 57.4872 184.79C58.3007 185.49 58.9306 185.301 59.3764 184.226C60.652 186.163 62.0014 188.044 63.4248 189.869C64.7559 190.22 66.0153 190.691 67.2033 191.279C66.5966 191.42 66.0568 191.702 65.584 192.126C67.1801 193.152 68.8896 193.905 70.7119 194.383C71.947 196.501 72.2168 198.664 71.5216 200.871C72.579 202.459 73.4789 204.151 74.2205 205.95C74.1854 210.468 74.1854 214.982 74.2205 219.492C74.9789 221.384 75.339 223.359 75.3001 225.416C74.8683 231.974 74.6885 238.557 74.7603 245.165C73.949 238.056 72.9591 230.909 71.7915 223.723C71.5848 223.41 71.3149 223.222 70.9818 223.159C71.1562 215.281 70.0766 207.757 67.7431 200.589C67.7431 199.461 67.7431 198.332 67.7431 197.204C67.7431 196.075 67.7431 194.947 67.7431 193.818C65.1802 193.945 62.661 193.663 60.1861 192.972C59.5049 191.688 58.6051 190.654 57.4872 189.869C55.5278 185.366 53.5485 180.852 51.5496 176.327C51.6395 175.763 51.7295 175.198 51.8195 174.634C53.4665 173.759 54.6361 172.443 55.3281 170.684C56.725 169.504 58.3444 168.752 60.1861 168.427C61.5998 168.276 62.9493 168.464 64.2345 168.992C66.8676 166.676 69.8364 166.112 73.141 167.299Z" fill="#FDFBE7"/>
<path opacity="0.278" fill-rule="evenodd" clip-rule="evenodd" d="M195.672 181.969C194.641 185.404 193.201 188.601 191.354 191.561C191.611 189.781 192.151 188.088 192.973 186.483C192.973 186.295 192.973 186.107 192.973 185.919C193.946 184.599 194.846 183.282 195.672 181.969Z" fill="#B09770"/>
<path fill-rule="evenodd" clip-rule="evenodd" d="M192.973 186.483C192.151 188.088 191.611 189.781 191.354 191.561C189.418 192.432 187.348 192.996 185.146 193.254C184.687 197.126 184.057 200.888 183.257 204.539C182.246 200.047 182.696 195.721 184.606 191.561C185.905 191.125 187.254 190.843 188.655 190.715C189.283 189.447 190.003 188.224 190.814 187.047C191.481 186.627 192.201 186.439 192.973 186.483Z" fill="#E6DCC0"/>
<path opacity="0.055" fill-rule="evenodd" clip-rule="evenodd" d="M57.4871 189.869C58.605 190.654 59.5048 191.688 60.186 192.972C62.6609 193.663 65.1801 193.945 67.743 193.818C67.743 194.947 67.743 196.075 67.743 197.204C67.2296 196.403 67.0499 195.463 67.2032 194.383C64.63 194.557 62.1109 194.275 59.6462 193.536C58.3383 192.65 57.6188 191.428 57.4871 189.869Z" fill="#C4A282"/>
<path opacity="0.835" fill-rule="evenodd" clip-rule="evenodd" d="M67.7429 200.589C70.0764 207.757 71.156 215.281 70.9816 223.159C69.6802 215.743 68.6006 208.22 67.7429 200.589Z" fill="#C6B084"/>
<path fill-rule="evenodd" clip-rule="evenodd" d="M60.186 178.02C59.745 180.272 59.9253 182.529 60.7258 184.79C62.3306 186.092 63.7702 187.596 65.044 189.304C66.6208 189.816 68.2401 190.004 69.9021 189.869C70.9633 191.655 71.9528 193.536 72.8709 195.511C73.916 199.031 75.0851 202.511 76.3795 205.95C75.8376 207.675 76.0179 209.367 76.9193 211.028C76.4276 213.637 76.0675 216.27 75.8397 218.927C76.1847 225.724 77.1741 232.4 78.8086 238.958C79.527 240.839 80.517 242.532 81.7774 244.036C80.9596 245.191 80.5094 246.508 80.4279 247.986C80.2482 247.798 80.0679 247.61 79.8881 247.422C79.7597 249.522 79.4898 251.591 79.0785 253.628C80.0085 257.42 80.4581 261.182 80.4279 264.913C80.6077 264.725 80.788 264.537 80.9677 264.349C81.0767 265.34 81.3466 266.28 81.7774 267.17C83.4356 266.397 85.1451 265.833 86.9053 265.478C87.0851 266.042 87.2654 266.606 87.4451 267.17C88.0529 264.773 88.4124 262.328 88.5247 259.835C90.2488 258.06 90.1586 256.462 88.2548 255.039C89.6188 253.851 90.8782 252.534 92.0333 251.089C91.7359 250.301 91.5561 249.548 91.4935 248.832C92.5159 248.211 92.8759 247.459 92.5731 246.575C93.1129 246.293 93.6526 246.011 94.1924 245.729C95.3055 245.929 96.385 246.023 97.4311 246.011C98.983 243.69 98.7131 243.031 96.6215 244.036C98.1458 242.266 99.9455 240.574 102.019 238.958C102.586 239.532 103.215 239.626 103.909 239.24C104.427 238.44 104.876 237.593 105.258 236.701C106.439 237.235 107.699 237.235 109.037 236.701C108.957 235.953 109.046 235.295 109.306 234.726C116.975 235.491 124.892 235.773 133.057 235.573C135.756 235.478 138.455 235.385 141.154 235.29C141.996 235.111 142.626 234.641 143.043 233.88C143.234 235.182 143.774 235.37 144.662 234.444C145.54 234.889 146.35 235.454 147.091 236.137C148.075 235.433 149.155 235.057 150.33 235.008C150.898 236.91 150.988 238.791 150.6 240.651C151.387 239.509 152.376 239.415 153.569 240.369C153.491 241.45 153.76 242.484 154.378 243.472C154.918 243.096 155.458 242.72 155.998 242.344C158.157 242.72 160.316 243.096 162.475 243.472C162.835 244.224 162.835 244.977 162.475 245.729C161.462 246.041 160.652 246.605 160.046 247.422C158.586 247.379 157.146 247.192 155.728 246.858C155.288 246.103 154.658 245.539 153.839 245.165C153.439 245.809 152.989 245.809 152.489 245.165C151.707 244.403 151.346 243.463 151.41 242.344C149.944 242.243 148.504 241.961 147.091 241.497C147.608 240.85 147.429 240.286 146.552 239.804C145.05 239.271 143.61 239.177 142.233 239.522C141.274 238.707 140.194 238.143 138.995 237.83C137.393 238.151 135.773 238.339 134.137 238.394C131.107 237.849 128.048 237.472 124.96 237.265C118.997 238.187 113.06 238.845 107.147 239.24C106.143 240.404 104.883 241.156 103.369 241.497C102.513 242.665 101.793 243.887 101.21 245.165C101.21 245.729 101.21 246.293 101.21 246.858C100.984 247.265 100.625 247.547 100.13 247.704C98.7018 247.984 97.2622 248.079 95.8118 247.986C95.014 247.838 94.2945 248.026 93.6526 248.55C94.98 249.92 95.5198 251.612 95.272 253.628C94.7322 253.628 94.1924 253.628 93.6526 253.628C93.6526 254.381 93.6526 255.133 93.6526 255.885C91.6765 257.301 90.2369 259.181 89.3344 261.528C88.9743 263.597 88.6148 265.666 88.2548 267.735C87.8219 268.554 87.552 269.494 87.4451 270.556C87.3285 269.493 86.9685 268.552 86.3656 267.735C85.6579 269.221 84.7581 270.538 83.6666 271.684C82.3053 270.09 81.2257 270.278 80.4279 272.249C80.3594 271.044 80.449 269.822 80.6978 268.581C79.9302 265.601 79.2102 262.216 78.5387 258.425C78.7184 258.237 78.8987 258.048 79.0785 257.86C77.6194 255.015 76.3601 252.099 75.3 249.115C75.206 247.782 75.0263 246.466 74.7602 245.165C74.6884 238.557 74.8681 231.974 75.3 225.416C75.3388 223.359 74.9788 221.384 74.2204 219.492C74.1853 214.982 74.1853 210.468 74.2204 205.95C73.4787 204.151 72.5789 202.459 71.5215 200.871C72.2167 198.664 71.9468 196.501 70.7118 194.383C68.8895 193.905 67.18 193.152 65.5838 192.126C66.0567 191.702 66.5965 191.42 67.2032 191.279C66.0151 190.691 64.7558 190.22 63.4247 189.869C62.0013 188.044 60.6518 186.163 59.3763 184.226C58.9304 185.301 58.3005 185.49 57.4871 184.79C58.8543 183.02 59.4843 180.952 59.3763 178.584C59.583 178.27 59.8529 178.082 60.186 178.02Z" fill="#FCFCF1"/>
<path opacity="0.961" fill-rule="evenodd" clip-rule="evenodd" d="M183.257 204.539C182.284 214.655 180.845 224.623 178.939 234.444C178.849 230.114 178.939 225.788 179.209 221.466C180.227 220.605 180.767 219.477 180.828 218.081C181.008 215.448 181.188 212.815 181.368 210.182C181.941 208.248 182.571 206.367 183.257 204.539Z" fill="#E0CFB9"/>
<path opacity="0.925" fill-rule="evenodd" clip-rule="evenodd" d="M70.9817 223.159C71.3147 223.222 71.5846 223.41 71.7914 223.723C72.9589 230.909 73.9489 238.056 74.7602 245.165C75.0263 246.466 75.206 247.782 75.3 249.114C76.7768 257.516 77.8564 265.98 78.5387 274.506C79.4714 278.135 78.2116 279.64 74.7602 279.02C75.5261 278.483 76.4254 278.295 77.4591 278.455C75.3523 260.028 73.1932 241.596 70.9817 223.159Z" fill="#CCB289"/>
<path fill-rule="evenodd" clip-rule="evenodd" d="M155.728 246.858C154.118 246.596 152.499 246.408 150.87 246.293C148.837 245.204 147.218 243.605 146.012 241.497C145.413 241.137 144.784 240.855 144.123 240.651C131.593 241.034 119.088 241.222 106.608 241.215C105.161 241.229 104.442 241.981 104.448 243.472C103.909 243.472 103.369 243.472 102.829 243.472C102.829 244.036 102.829 244.601 102.829 245.165C102.289 245.165 101.75 245.165 101.21 245.165C101.793 243.887 102.513 242.665 103.369 241.497C104.883 241.156 106.143 240.404 107.147 239.24C113.06 238.845 118.997 238.187 124.96 237.265C128.048 237.472 131.107 237.849 134.137 238.394C135.773 238.339 137.393 238.151 138.995 237.83C140.194 238.143 141.274 238.707 142.233 239.522C143.61 239.177 145.05 239.271 146.552 239.804C147.429 240.286 147.609 240.85 147.091 241.497C148.504 241.961 149.944 242.243 151.41 242.344C151.347 243.463 151.707 244.403 152.489 245.165C152.989 245.809 153.439 245.809 153.839 245.165C154.658 245.539 155.288 246.103 155.728 246.858Z" fill="#E7E2CC"/>
<path opacity="0.043" fill-rule="evenodd" clip-rule="evenodd" d="M120.102 243.472C126.579 242.72 133.057 242.72 139.534 243.472C133.138 243.512 126.66 243.512 120.102 243.472Z" fill="#A38266"/>
<path opacity="0.753" fill-rule="evenodd" clip-rule="evenodd" d="M106.608 241.215C105.348 243.66 103.549 245.541 101.21 246.858C101.21 246.293 101.21 245.729 101.21 245.165C101.75 245.165 102.289 245.165 102.829 245.165C102.829 244.601 102.829 244.036 102.829 243.472C103.369 243.472 103.909 243.472 104.448 243.472C104.442 241.981 105.161 241.229 106.608 241.215Z" fill="#C5B896"/>
<path opacity="0.999" fill-rule="evenodd" clip-rule="evenodd" d="M120.102 243.472C126.661 243.512 133.138 243.512 139.534 243.472C140.985 243.38 142.424 243.474 143.853 243.754C146.458 245.914 148.887 248.265 151.14 250.807C151.406 251.729 151.496 252.67 151.41 253.629C134.872 254.274 118.319 254.368 101.749 253.911C101.313 253.737 100.953 253.455 100.67 253.064C102.278 250.443 104.258 248.186 106.608 246.293C107.264 245.193 108.163 244.346 109.306 243.754C112.9 243.472 116.499 243.378 120.102 243.472Z" fill="#E5D5B4"/>
<path fill-rule="evenodd" clip-rule="evenodd" d="M106.608 246.293C108.316 246.596 109.755 246.126 110.926 244.883C119.922 244.506 128.919 244.506 137.915 244.883C139.355 245.203 140.794 245.485 142.233 245.729C141.63 247.622 141.63 249.503 142.233 251.371C141.578 252.257 140.678 252.727 139.534 252.782C127.475 253.252 115.42 253.158 103.369 252.5C103.256 252.169 103.076 251.887 102.829 251.654C103.699 251.247 104.509 251.341 105.258 251.936C106.492 250.319 106.942 248.438 106.608 246.293Z" fill="#FEFCEC"/>
<path opacity="0.251" fill-rule="evenodd" clip-rule="evenodd" d="M150.87 246.293C152.499 246.408 154.118 246.596 155.728 246.857C157.146 247.191 158.586 247.379 160.046 247.422C159.9 248.444 159.54 249.384 158.967 250.243C158.033 250.54 157.313 251.104 156.808 251.936C157.523 252.58 158.063 253.333 158.427 254.193C155.043 252.741 154.953 251.237 158.157 249.679C158.517 249.302 158.517 248.927 158.157 248.55C155.534 248.321 153.105 247.568 150.87 246.293Z" fill="#BBAF98"/>
<path opacity="0.631" fill-rule="evenodd" clip-rule="evenodd" d="M95.8117 247.986C95.5861 248.393 95.2266 248.676 94.7322 248.832C95.4879 249.644 96.3877 250.114 97.4311 250.243C97.4737 251.05 97.294 251.803 96.8913 252.5C95.7475 253.642 94.6679 254.771 93.6526 255.886C93.6526 255.133 93.6526 254.381 93.6526 253.629C94.1924 253.629 94.7322 253.629 95.2719 253.629C95.5197 251.612 94.9799 249.92 93.6526 248.55C94.2944 248.026 95.0139 247.838 95.8117 247.986Z" fill="#B0A17A"/>
<path opacity="0.804" fill-rule="evenodd" clip-rule="evenodd" d="M176.78 250.243C175.829 259.861 174.749 269.453 173.541 279.019C173.113 276.804 172.933 274.547 173.001 272.249C173.271 271.684 173.541 271.12 173.811 270.556C174.08 267.364 174.17 264.166 174.081 260.964C174.367 257.201 175.267 253.628 176.78 250.243Z" fill="#E6DAC3"/>
<path opacity="0.251" fill-rule="evenodd" clip-rule="evenodd" d="M109.846 265.478C109.318 265.302 108.958 264.926 108.767 264.349C104.102 263.786 99.4241 263.598 94.7323 263.785C94.9083 265.954 95.8977 267.647 97.7011 268.863C101.906 269.401 106.134 269.589 110.386 269.427C108.325 269.803 106.165 269.991 103.909 269.992C101.165 270.037 98.4665 269.755 95.8119 269.145C94.5007 267.429 93.961 265.455 94.1925 263.221C99.2433 263.033 104.281 263.222 109.306 263.785C109.645 264.302 109.825 264.867 109.846 265.478Z" fill="#BF9B70"/>
<path fill-rule="evenodd" clip-rule="evenodd" d="M109.846 265.478C110.944 266.694 111.124 268.01 110.386 269.427C106.134 269.589 101.906 269.401 97.701 268.863C95.8976 267.647 94.9081 265.954 94.7322 263.785C99.424 263.598 104.102 263.786 108.767 264.349C108.958 264.926 109.318 265.302 109.846 265.478Z" fill="#FCEFC4"/>
<path fill-rule="evenodd" clip-rule="evenodd" d="M157.887 266.606C157.643 267.771 157.103 268.712 156.268 269.427C151.41 269.427 146.552 269.427 141.694 269.427C142.262 267.674 142.982 265.981 143.853 264.349C143.913 264.001 144.092 263.719 144.393 263.503C149.081 263.033 153.759 263.128 158.427 263.785C158.83 264.794 158.65 265.735 157.887 266.606Z" fill="#F2E0B5"/>
<path fill-rule="evenodd" clip-rule="evenodd" d="M157.887 266.606C156.749 267.109 155.669 267.767 154.649 268.581C151.316 269.117 148.077 268.929 144.932 268.017C145.548 267.599 145.548 267.128 144.932 266.606C146.314 266.67 147.753 266.388 149.251 265.76C149.611 265.196 149.97 264.631 150.33 264.067C152.843 263.786 155.362 263.691 157.887 263.785C157.887 264.726 157.887 265.666 157.887 266.606Z" fill="#FDF3D6"/>
<path fill-rule="evenodd" clip-rule="evenodd" d="M75.3001 249.115C76.3602 252.099 77.6195 255.015 79.0786 257.86C78.8988 258.048 78.7185 258.237 78.5388 258.425C79.2103 262.216 79.9303 265.601 80.6979 268.581C80.4491 269.822 80.3595 271.044 80.428 272.249C81.2258 270.278 82.3054 270.09 83.6667 271.684C84.7582 270.538 85.658 269.221 86.3657 267.735C86.9686 268.552 87.3286 269.493 87.4452 270.556C87.5521 269.494 87.822 268.554 88.2549 267.735C88.1653 272.065 88.2549 276.391 88.5248 280.712C89.3949 280.967 89.9347 281.719 90.1442 282.969C90.5042 284.85 90.5042 286.731 90.1442 288.612C87.8166 289.484 85.3876 289.86 82.8571 289.74C80.8496 289.72 78.8702 289.533 76.9194 289.176C74.2604 290.24 71.5615 290.992 68.8227 291.433C68.6429 291.433 68.4626 291.433 68.2829 291.433C65.578 291.339 62.8791 291.433 60.1861 291.715C59.3451 291.834 58.6256 292.116 58.027 292.561C53.5723 292.806 49.1641 292.806 44.8022 292.561C44.2653 292.881 43.8155 293.257 43.4528 293.69C41.9221 293.858 41.6523 293.482 42.6431 292.561C43.2303 290.873 42.8705 290.309 41.5635 290.869C40.0218 290.442 38.4925 289.972 36.9753 289.458C38.9959 288.817 40.9751 288.064 42.913 287.201C43.3191 286.822 43.4991 286.352 43.4528 285.79C43.6327 285.79 43.8126 285.79 43.9925 285.79C45.0544 285.656 46.044 285.844 46.9614 286.355C48.0736 284.872 49.4231 284.496 51.0097 285.226C52.9665 284.871 54.8557 284.307 56.6775 283.533C57.8521 283.493 58.9316 283.681 59.9162 284.098C62.7225 281.91 65.7815 280.97 69.0925 281.277C70.1354 280.261 71.3046 279.509 72.6011 279.02C73.3207 279.02 74.0408 279.02 74.7603 279.02C78.2117 279.64 79.4715 278.135 78.5388 274.506C77.8565 265.98 76.7769 257.516 75.3001 249.115Z" fill="#FDFDED"/>
<path opacity="0.108" fill-rule="evenodd" clip-rule="evenodd" d="M143.853 264.349C142.981 265.981 142.262 267.674 141.693 269.427C146.551 269.427 151.41 269.427 156.268 269.427C150.964 270.081 145.566 270.175 140.074 269.709C139.561 269.304 139.471 268.834 139.804 268.299C141.098 266.85 142.447 265.534 143.853 264.349Z" fill="#A98556"/>
<path fill-rule="evenodd" clip-rule="evenodd" d="M160.046 255.321C165.111 256.577 167.72 259.963 167.873 265.478C168.651 266.251 169.551 266.815 170.572 267.17C171.516 266.72 172.236 267.096 172.731 268.299C173.328 265.851 173.778 263.406 174.081 260.964C174.17 264.166 174.08 267.364 173.811 270.556C173.541 271.12 173.271 271.684 173.001 272.249C172.933 274.547 173.113 276.804 173.541 279.02C174.404 278.868 175.123 279.057 175.7 279.584C177.625 280.32 179.605 280.978 181.638 281.559C183.985 281.821 186.323 282.103 188.655 282.405C188.696 283.11 189.056 283.58 189.734 283.816C192.099 284.48 194.437 285.233 196.752 286.073C197.16 286.926 197.7 287.679 198.371 288.33C194.868 288.714 194.868 289.185 198.371 289.74C198.279 290.486 198.459 291.145 198.911 291.715C198.213 291.992 197.493 292.086 196.752 291.997C185.273 290.771 173.758 290.019 162.205 289.74C162.205 287.107 162.205 284.474 162.205 281.841C162.745 281.841 163.285 281.841 163.825 281.841C163.94 274.302 163.67 266.779 163.015 259.271C162.136 257.88 161.147 256.564 160.046 255.321Z" fill="#FDFBEC"/>
<path opacity="0.796" fill-rule="evenodd" clip-rule="evenodd" d="M158.427 254.757C159.025 254.789 159.565 254.977 160.046 255.321C161.147 256.564 162.136 257.88 163.015 259.271C163.67 266.779 163.94 274.302 163.825 281.841C163.285 281.841 162.745 281.841 162.205 281.841C162.026 281.841 161.845 281.841 161.665 281.841C162.809 278.741 163.349 275.449 163.285 271.966C163.028 267.922 162.758 263.878 162.475 259.835C160.808 258.379 159.459 256.686 158.427 254.757Z" fill="#BE9D7B"/>
<path opacity="0.898" fill-rule="evenodd" clip-rule="evenodd" d="M175.7 279.584C180.713 280.031 185.571 280.971 190.274 282.405C189.734 282.405 189.195 282.405 188.655 282.405C186.323 282.103 183.985 281.821 181.638 281.559C179.605 280.978 177.625 280.32 175.7 279.584Z" fill="#D6BB9C"/>
<path opacity="0.982" fill-rule="evenodd" clip-rule="evenodd" d="M72.601 279.02C71.3045 279.509 70.1353 280.261 69.0924 281.277C65.7814 280.97 62.7224 281.91 59.9161 284.098C58.9315 283.681 57.8519 283.493 56.6774 283.533C54.8556 284.307 52.9664 284.871 51.0096 285.226C49.423 284.496 48.0735 284.872 46.9612 286.355C46.0439 285.844 45.0543 285.656 43.9924 285.79C53.3066 282.826 62.8428 280.569 72.601 279.02Z" fill="#EDE2C4"/>
<path opacity="0.249" fill-rule="evenodd" clip-rule="evenodd" d="M147.091 289.176C147.241 287.513 147.061 285.914 146.552 284.38C133.058 284.098 119.563 284.004 106.068 284.098C106.666 283.652 107.386 283.37 108.227 283.251C110.656 283.157 113.085 283.063 115.514 282.969C125.49 283.132 135.476 283.227 145.472 283.251C146.155 283.426 146.785 283.708 147.361 284.098C147.796 285.901 147.706 287.594 147.091 289.176Z" fill="#C89766"/>
<path opacity="0.995" fill-rule="evenodd" clip-rule="evenodd" d="M106.068 284.098C119.563 284.004 133.058 284.098 146.552 284.38C147.061 285.914 147.241 287.513 147.091 289.176C134.949 289.739 122.714 289.927 110.386 289.74C109.034 289.178 107.594 289.178 106.068 289.74C104.628 287.86 104.628 285.978 106.068 284.098Z" fill="#F2E8C7"/>
<path fill-rule="evenodd" clip-rule="evenodd" d="M188.655 282.405C189.195 282.405 189.734 282.405 190.274 282.405C196.775 283.547 203.073 285.24 209.167 287.483C211.703 290 214.761 290.94 218.343 290.304C219.729 290.429 220.988 290.806 222.121 291.433C223.021 292.185 223.921 292.938 224.82 293.69C224.82 294.254 224.82 294.818 224.82 295.383C223.161 295.593 221.542 295.969 219.962 296.511C216.469 295.339 212.87 294.774 209.167 294.818C206.684 294.943 204.345 294.567 202.149 293.69C200.35 293.126 198.551 292.561 196.752 291.997C197.493 292.086 198.213 291.992 198.911 291.715C198.459 291.145 198.279 290.486 198.371 289.74C194.868 289.185 194.868 288.714 198.371 288.33C197.7 287.678 197.16 286.926 196.752 286.073C194.438 285.233 192.099 284.48 189.734 283.816C189.056 283.58 188.696 283.11 188.655 282.405Z" fill="#FAF7D5"/>
<path opacity="0.996" fill-rule="evenodd" clip-rule="evenodd" d="M43.4528 285.791C43.4991 286.353 43.3191 286.823 42.913 287.201C40.9751 288.064 38.9959 288.817 36.9754 289.458C38.4925 289.972 40.0219 290.442 41.5636 290.869C42.8705 290.309 43.2304 290.873 42.6431 292.561C41.6523 293.482 41.9222 293.858 43.4528 293.69C43.4528 294.066 43.4528 294.442 43.4528 294.818C38.6255 295.781 33.7674 296.533 28.8786 297.075C26.3838 296.881 24.0447 297.258 21.8614 298.204C19.5146 298.435 17.1755 298.529 14.8442 298.486C14.2049 297.84 14.2049 297.182 14.8442 296.511C17.6061 295.162 20.305 293.657 22.941 291.997C29.7695 289.93 36.6068 287.861 43.4528 285.791Z" fill="#F8F2D3"/>
<path opacity="0.96" fill-rule="evenodd" clip-rule="evenodd" d="M89.3343 261.528C89.1551 267.746 89.3349 273.953 89.8741 280.148C91.6937 282.869 92.3237 285.878 91.7634 289.176C90.7777 290.064 89.608 290.534 88.2548 290.586C81.7768 290.893 75.2994 291.176 68.8225 291.433C71.5614 290.992 74.2603 290.24 76.9193 289.176C78.8701 289.532 80.8495 289.72 82.8569 289.74C85.3874 289.86 87.8165 289.484 90.144 288.612C90.504 286.731 90.504 284.85 90.144 282.969C89.9346 281.719 89.3948 280.967 88.5247 280.712C88.2548 276.391 88.1652 272.065 88.2548 267.735C88.6148 265.665 88.9743 263.597 89.3343 261.528Z" fill="#CDB99E"/>
<path opacity="0.063" fill-rule="evenodd" clip-rule="evenodd" d="M110.386 289.74C108.846 290.168 107.407 290.168 106.068 289.74C107.594 289.178 109.034 289.178 110.386 289.74Z" fill="#98733A"/>
<path fill-rule="evenodd" clip-rule="evenodd" d="M209.167 287.483C212.373 288.1 215.431 289.041 218.343 290.304C214.761 290.94 211.703 290 209.167 287.483Z" fill="#E4CA97"/>
<path opacity="0.878" fill-rule="evenodd" clip-rule="evenodd" d="M161.666 281.841C161.845 281.841 162.026 281.841 162.205 281.841C162.205 284.474 162.205 287.107 162.205 289.74C173.758 290.019 185.273 290.771 196.752 291.997C198.551 292.561 200.35 293.126 202.149 293.69C189.332 292.051 176.467 290.922 163.555 290.305C162.66 290.206 161.94 289.829 161.396 289.176C160.981 286.682 161.071 284.237 161.666 281.841Z" fill="#CFB899"/>
<path opacity="0.316" fill-rule="evenodd" clip-rule="evenodd" d="M68.2828 291.433C64.9874 292.277 61.5689 292.653 58.0269 292.561C58.6255 292.116 59.345 291.834 60.186 291.715C62.879 291.434 65.5779 291.339 68.2828 291.433Z" fill="#C4A793"/>
<path opacity="0.431" fill-rule="evenodd" clip-rule="evenodd" d="M58.0268 292.562C53.2718 293.513 48.4137 294.266 43.4526 294.819C43.4526 294.442 43.4526 294.066 43.4526 293.69C43.8154 293.257 44.2652 292.881 44.8021 292.562C49.164 292.806 53.5722 292.806 58.0268 292.562Z" fill="#BEAC90"/>
<path opacity="0.663" fill-rule="evenodd" clip-rule="evenodd" d="M209.167 294.819C212.87 294.775 216.469 295.339 219.962 296.511C219.962 296.699 219.962 296.888 219.962 297.076C216.229 296.678 212.63 295.926 209.167 294.819Z" fill="#C5B38C"/>
<path fill-rule="evenodd" clip-rule="evenodd" d="M224.82 293.69C226.663 294.57 228.642 295.04 230.758 295.101C231.885 295.547 232.875 296.206 233.727 297.075C235.019 296.717 236.369 296.717 237.775 297.075C239.492 298.4 241.471 299.246 243.713 299.615C245.039 300.833 244.679 301.303 242.633 301.025C237.955 300.273 233.277 299.52 228.599 298.768C225.594 298.543 222.715 297.979 219.962 297.075C219.962 296.888 219.962 296.699 219.962 296.511C221.542 295.969 223.161 295.593 224.82 295.383C224.82 294.818 224.82 294.254 224.82 293.69Z" fill="#F9EEBA"/>
<path opacity="0.869" fill-rule="evenodd" clip-rule="evenodd" d="M222.122 291.433C227.547 292.884 232.765 294.765 237.775 297.076C236.369 296.717 235.019 296.717 233.727 297.076C232.875 296.206 231.885 295.548 230.758 295.101C228.642 295.04 226.663 294.57 224.821 293.69C223.921 292.938 223.021 292.185 222.122 291.433Z" fill="#E1C28D"/>
<path opacity="0.325" fill-rule="evenodd" clip-rule="evenodd" d="M22.9408 291.997C20.3048 293.657 17.6059 295.162 14.844 296.511C10.7349 297.726 6.59658 298.855 2.42896 299.897C9.09514 296.945 15.9324 294.312 22.9408 291.997Z" fill="#B37D4C"/>
<path opacity="0.125" fill-rule="evenodd" clip-rule="evenodd" d="M28.8785 297.075C26.6443 297.675 24.3052 298.052 21.8613 298.204C24.0447 297.258 26.3837 296.881 28.8785 297.075Z" fill="#A58E6B"/>
<path opacity="0.616" fill-rule="evenodd" clip-rule="evenodd" d="M228.599 298.768C233.277 299.52 237.955 300.273 242.633 301.025C243.848 301.316 244.928 301.88 245.872 302.718C244.613 302.718 243.353 302.718 242.094 302.718C237.612 301.349 233.114 300.033 228.599 298.768Z" fill="#9A7648"/>
<path fill-rule="evenodd" clip-rule="evenodd" d="M14.844 296.511C14.2047 297.182 14.2047 297.84 14.844 298.486C17.1753 298.529 19.5144 298.435 21.8612 298.204C17.1532 299.748 12.2951 300.877 7.28699 301.589C5.91707 301.593 4.56763 301.782 3.2386 302.154C2.30801 301.897 1.49834 301.427 0.80957 300.743C1.10967 300.527 1.2896 300.245 1.34936 299.897C1.70921 299.897 2.06907 299.897 2.42893 299.897C6.59655 298.855 10.7349 297.726 14.844 296.511Z" fill="#EFD8AA"/>
<path opacity="0.933" fill-rule="evenodd" clip-rule="evenodd" d="M237.775 297.075C242.097 298.394 246.415 299.711 250.73 301.025C250.73 301.589 250.73 302.154 250.73 302.718C249.111 302.718 247.491 302.718 245.872 302.718C244.928 301.88 243.848 301.316 242.633 301.025C244.679 301.303 245.038 300.833 243.713 299.615C241.471 299.246 239.492 298.4 237.775 297.075Z" fill="#CAA473"/>
<path fill-rule="evenodd" clip-rule="evenodd" d="M1.34958 299.897C1.28982 300.245 1.10989 300.527 0.809795 300.743C1.49856 301.427 2.30824 301.897 3.23883 302.154C4.56786 301.782 5.91729 301.593 7.28721 301.589C7.1073 301.966 6.92734 302.342 6.74743 302.718C4.40836 302.718 2.06929 302.718 -0.269775 302.718C-0.269775 301.966 -0.269775 301.213 -0.269775 300.461C0.211198 300.117 0.750985 299.929 1.34958 299.897Z" fill="#BF9B67"/>
</g>
<defs>
<clipPath id="clip0_349_364">
<rect width="251" height="303" fill="white"/>
</clipPath>
</defs>
</svg>
